#!OML:ASF I:\Actors\actors\Patient Classification 1\Patient 1\Session 1\Subject1.ASF
:FULLY-SPECIFIED
:DEGREES
1574
root 0.614035 17.5859 8.81622 11.8619 -4.3489 -13.8427
lowerback 4.30286 2.16124 7.47621
upperback 5.05041 3.03313 -0.599932
thorax 3.27236 1.7827 -4.84257
lowerneck 6.27071 -2.47183 -3.02299
upperneck 17.0813 -5.01777 12.4334
head 4.41846 -2.1256 4.28742
rclavicle -7.15625e-015 -2.06736e-014
rhumerus 16.8634 31.1666 -55.6883
rradius 129.198
rwrist -2.51988
rhand 23.2054 -36.1795
rfingers 7.12502
rthumb 47.5086 -58.6184
lclavicle -7.15625e-015 -2.06736e-014
lhumerus -11.5103 -28.708 81.6454
lradius 130.072
lwrist 12.7289
lhand -13.3379 -8.54128
lfingers 7.12502
lthumb 12.7675 21.0483
rfemur -8.73904 21.9562 29.2187
rtibia 3.51944
rfoot -10.3243 -20.8624
rtoes 0.50637
lfemur 3.92535 -51.0077 -5.30316
ltibia -5.33464
lfoot -45.1598 58.0678
ltoes 26.1632
1575
root 0.613883 17.5855 8.80982 11.8016 -4.35682 -13.906
lowerback 4.35413 2.07392 7.38111
upperback 5.03004 2.91903 -0.559325
thorax 3.19712 1.71822 -4.74979
lowerneck 6.38746 -2.4394 -2.71673
upperneck 17.383 -4.91805 11.8391
head 4.46986 -2.07832 4.05261
rclavicle 3.81667e-014 -2.06736e-014
rhumerus 16.5398 31.5746 -56.2254
rradius 129.182
rwrist -2.53504
rhand 23.2283 -36.1798
rfingers 7.12502
rthumb 47.5298 -58.6091
lclavicle 3.81667e-014 -2.06736e-014
lhumerus -11.6454 -28.51 81.6573
lradius 130.049
lwrist 12.701
lhand -13.2844 -8.67121
lfingers 7.12502
lthumb 12.819 20.9152
rfemur -8.70344 21.9187 29.315
rtibia 3.55368
rfoot -10.3015 -20.8254
rtoes 0.327193
lfemur 4.00258 -50.9377 -5.27066
ltibia -5.36393
lfoot -44.9097 58.1004
ltoes 25.8576
1576
root 0.613522 17.5864 8.80528 11.8163 -4.39474 -13.9007
lowerback 4.33707 2.04565 7.27879
upperback 4.97793 2.88021 -0.574764
thorax 3.1406 1.69222 -4.70925
lowerneck 6.54106 -2.40525 -2.39577
upperneck 17.5247 -4.83335 11.5138
head 4.47165 -2.03243 3.90011
rclavicle 1.59028e-015 3.02153e-014
rhumerus 16.1417 31.8389 -56.7988
rradius 129.146
rwrist -2.53852
rhand 23.2176 -36.2668
rfingers 7.12502
rthumb 47.5199 -58.7005
lclavicle 1.59028e-015 3.02153e-014
lhumerus -11.7629 -28.4586 81.694
lradius 130.032
lwrist 12.6398
lhand -13.3506 -8.74325
lfingers 7.12502
lthumb 12.7553 20.8471
rfemur -8.75079 21.9267 29.2918
rtibia 3.58398
rfoot -10.3191 -20.7941
rtoes 0.318999
lfemur 3.95469 -50.9172 -5.23269
ltibia -5.37038
lfoot -44.7302 58.1941
ltoes 25.6587
1577
root 0.613662 17.5862 8.80233 11.8405 -4.43659 -13.869
lowerback 4.28514 2.0502 7.21469
upperback 4.94446 2.88278 -0.606266
thorax 3.13255 1.69082 -4.70489
lowerneck 6.85076 -2.39685 -1.8094
upperneck 17.3515 -4.71952 11.0281
head 4.34332 -1.97754 3.65229
rclavicle -1.59028e-015 1.59028e-015
rhumerus 15.7353 31.9631 -57.3476
rradius 129.12
rwrist -2.60432
rhand 23.1819 -36.4684
rfingers 7.12502
rthumb 47.4869 -58.9171
lclavicle -1.59028e-015 1.59028e-015
lhumerus -11.8195 -28.4852 81.778
lradius 129.991
lwrist 12.5672
lhand -13.4056 -8.62402
lfingers 7.12502
lthumb 12.7022 20.9697
rfemur -8.78678 21.9321 29.2346
rtibia 3.58206
rfoot -10.3531 -20.7512
rtoes 0.653594
lfemur 3.94096 -51.0111 -5.27165
ltibia -5.35497
lfoot -44.807 58.3127
ltoes 25.5387
1578
root 0.609713 17.5892 8.80144 11.8998 -4.58488 -13.5496
lowerback 4.11867 2.05731 6.71519
upperback 4.91481 2.87204 -0.662195
thorax 3.16463 1.67005 -4.47691
lowerneck 6.65805 -2.31391 -2.14014
upperneck 17.8546 -4.70437 11.2851
head 4.53713 -1.95759 3.79183
rclavicle -1.98785e-014 3.65764e-014
rhumerus 15.4328 32.16 -57.8043
rradius 129.068
rwrist -2.56805
rhand 23.1841 -36.5126
rfingers 7.12502
rthumb 47.489 -58.9604
lclavicle -1.98785e-014 3.65764e-014
lhumerus -11.8743 -28.3785 81.8757
lradius 129.94
lwrist 12.495
lhand -13.3184 -8.44826
lfingers 7.12502
lthumb 12.7862 21.1402
rfemur -8.92029 22.1023 28.7986
rtibia 3.61082
rfoot -10.4164 -20.8175
rtoes 0.977546
lfemur 3.92984 -51.4028 -5.67303
ltibia -5.25973
lfoot -46.0249 58.3218
ltoes 26.2264
1579
root 0.604815 17.5925 8.80114 11.9617 -4.74746 -13.2058
lowerback 3.93441 2.07117 6.17126
upperback 4.87213 2.87036 -0.710318
thorax 3.19159 1.65158 -4.21545
lowerneck 6.60697 -2.23552 -2.34128
upperneck 18.1444 -4.65662 11.4505
head 4.63661 -1.92928 3.88226
rclavicle -1.03368e-014 -1.59028e-015
rhumerus 15.1369 32.3466 -58.2349
rradius 129.001
rwrist -2.35712
rhand 23.2499 -36.3247
rfingers 7.12502
rthumb 47.5497 -58.7449
lclavicle -1.03368e-014 -1.59028e-015
lhumerus -11.9746 -28.2484 81.985
lradius 129.895
lwrist 12.4288
lhand -13.226 -8.41695
lfingers 7.12502
lthumb 12.8753 21.1659
rfemur -9.06413 22.2576 28.3355
rtibia 3.62428
rfoot -10.3913 -20.8879
rtoes 0.731442
lfemur 3.90754 -51.7702 -6.08954
ltibia -5.17004
lfoot -47.2774 58.2853
ltoes 27.0469
1580
root 0.608489 17.5874 8.79792 11.8783 -4.70179 -13.5774
lowerback 3.98052 1.99978 6.5559
upperback 4.86726 2.78249 -0.570013
thorax 3.16548 1.61671 -4.28701
lowerneck 6.81119 -2.19406 -2.1107
upperneck 17.9466 -4.5372 11.1836
head 4.5263 -1.88172 3.76162
rclavicle 1.19271e-014 -1.59028e-015
rhumerus 14.9102 32.5557 -58.6332
rradius 128.947
rwrist -2.1686
rhand 23.2147 -36.1772
rfingers 7.12502
rthumb 47.5172 -58.6121
lclavicle 1.19271e-014 -1.59028e-015
lhumerus -12.1122 -28.03 82.1225
lradius 129.844
lwrist 12.3572
lhand -13.2205 -8.49433
lfingers 7.12502
lthumb 12.8806 21.0882
rfemur -8.90104 22.0485 28.8432
rtibia 3.5804
rfoot -10.2865 -20.6871
rtoes 0.402258
lfemur 4.16699 -51.7043 -5.84222
ltibia -5.27161
lfoot -47.0364 58.3496
ltoes 26.892
1581
root 0.613151 17.5814 8.7955 11.7966 -4.66054 -14.0032
lowerback 4.03744 1.94896 7.03437
upperback 4.81474 2.72717 -0.445102
thorax 3.09354 1.59863 -4.42854
lowerneck 6.48988 -2.11943 -2.63768
upperneck 18.4272 -4.56723 11.6503
head 4.74324 -1.88403 4.00058
rclavicle -3.57812e-014 -2.54444e-014
rhumerus 14.5318 32.7264 -59.1302
rradius 128.898
rwrist -2.02299
rhand 23.0959 -36.1185
rfingers 7.12502
rthumb 47.4074 -58.6031
lclavicle -3.57812e-014 -2.54444e-014
lhumerus -12.3046 -27.8737 82.2456
lradius 129.789
lwrist 12.3532
lhand -13.2075 -8.56828
lfingers 7.12502
lthumb 12.8932 21.0134
rfemur -8.7359 21.8337 29.4072
rtibia 3.55894
rfoot -10.2199 -20.445
rtoes 0.368766
lfemur 4.46726 -51.687 -5.57122
ltibia -5.36452
lfoot -46.9636 58.4074
ltoes 26.9084
1582
root 0.613599 17.5797 8.79532 11.7899 -4.71256 -14.0894
lowerback 4.02612 1.99621 7.14166
upperback 4.64897 2.79788 -0.459393
thorax 2.94245 1.62812 -4.50734
lowerneck 6.62184 -2.08839 -2.63485
upperneck 18.4377 -4.53954 11.7536
head 4.72381 -1.86973 4.03618
rclavicle -2.22639e-014 2.22639e-014
rhumerus 13.9059 32.7815 -59.7937
rradius 128.87
rwrist -1.94033
rhand 22.9469 -36.1537
rfingers 7.12502
rthumb 47.2698 -58.7002
lclavicle -2.22639e-014 2.22639e-014
lhumerus -12.5703 -27.9549 82.3751
lradius 129.685
lwrist 12.4129
lhand -13.1613 -8.61503
lfingers 7.12502
lthumb 12.9377 20.9639
rfemur -8.72037 21.8134 29.5078
rtibia 3.56684
rfoot -10.1798 -20.3506
rtoes 0.351736
lfemur 4.59236 -51.7769 -5.57469
ltibia -5.36373
lfoot -47.4275 58.3356
ltoes 27.3756
1583
root 0.614546 17.5783 8.79687 11.78 -4.75169 -14.0897
lowerback 3.98731 2.02598 7.17449
upperback 4.46105 2.84282 -0.47866
thorax 2.77608 1.64116 -4.54914
lowerneck 6.77455 -2.14363 -2.34126
upperneck 18.4374 -4.58155 11.5805
head 4.69566 -1.88425 3.93165
rclavicle -2.06736e-014 -5.40694e-014
rhumerus 13.347 32.8752 -60.4209
rradius 128.858
rwrist -1.91565
rhand 22.799 -36.2693
rfingers 7.12502
rthumb 47.1331 -58.8766
lclavicle -2.06736e-014 -5.40694e-014
lhumerus -12.9098 -28.0206 82.5572
lradius 129.587
lwrist 12.4132
lhand -13.0847 -8.60019
lfingers 7.12502
lthumb 13.0115 20.974
rfemur -8.69489 21.7636 29.5048
rtibia 3.54852
rfoot -10.1776 -20.2534
rtoes 0.255638
lfemur 4.69434 -51.8494 -5.66736
ltibia -5.37078
lfoot -47.5349 58.4147
ltoes 27.3085
1584
root 0.61579 17.577 8.80067 11.7583 -4.79984 -14.0177
lowerback 3.86875 2.02639 7.10452
upperback 4.3214 2.83837 -0.483645
thorax 2.69146 1.6303 -4.51378
lowerneck 6.42698 -2.20488 -2.39061
upperneck 18.8877 -4.72813 11.6548
head 4.90568 -1.92968 3.96015
rclavicle -3.18055e-015 4.29375e-014
rhumerus 12.9689 32.9693 -60.9671
rradius 128.795
rwrist -1.82079
rhand 22.7302 -36.3837
rfingers 7.12502
rthumb 47.0695 -59.0192
lclavicle -3.18055e-015 4.29375e-014
lhumerus -13.233 -28.0011 82.7214
lradius 129.554
lwrist 12.3418
lhand -13.1154 -8.50454
lfingers 7.12502
lthumb 12.9819 21.0716
rfemur -8.64394 21.7241 29.4239
rtibia 3.50921
rfoot -10.1637 -20.1785
rtoes 0.0204384
lfemur 4.86304 -52.0302 -5.921
ltibia -5.37074
lfoot -47.7316 58.6288
ltoes 27.1016
1585
root 0.616581 17.5755 8.80508 11.7172 -4.82369 -13.9496
lowerback 3.74716 2.01389 7.02798
upperback 4.18002 2.81618 -0.466117
thorax 2.60293 1.60991 -4.45118
lowerneck 6.47818 -2.22985 -1.94041
upperneck 18.7268 -4.67337 11.216
head 4.83043 -1.90094 3.74243
rclavicle 8.74653e-015 9.54166e-015
rhumerus 12.63 33.0849 -61.4841
rradius 128.676
rwrist -1.58207
rhand 22.5786 -36.5254
rfingers 7.12502
rthumb 46.9293 -59.2227
lclavicle 8.74653e-015 9.54166e-015
lhumerus -13.5217 -27.9585 82.9021
lradius 129.471
lwrist 12.221
lhand -13.2491 -8.39716
lfingers 7.12502
lthumb 12.853 21.1871
rfemur -8.56576 21.7074 29.3649
rtibia 3.46938
rfoot -10.1097 -20.1745
rtoes -0.249979
lfemur 5.01622 -52.1328 -6.1475
ltibia -5.35392
lfoot -47.8714 58.6918
ltoes 27.0713
1586
root 0.617463 17.5743 8.80989 11.6729 -4.81078 -13.8124
lowerback 3.6421 2.02181 6.94958
upperback 3.99113 2.82445 -0.458914
thorax 2.46012 1.60197 -4.40026
lowerneck 6.48375 -2.30731 -1.8458
upperneck 18.5894 -4.7435 11.0786
head 4.7886 -1.93954 3.67911
rclavicle -1.55052e-014 6.36111e-014
rhumerus 12.1541 33.2065 -61.9675
rradius 128.548
rwrist -1.14243
rhand 22.148 -36.6372
rfingers 7.12502
rthumb 46.5306 -59.5075
lclavicle -1.55052e-014 6.36111e-014
lhumerus -13.8016 -27.9944 83.1781
lradius 129.329
lwrist 12.1486
lhand -13.259 -8.39241
lfingers 7.12502
lthumb 12.8435 21.1924
rfemur -8.47636 21.7573 29.2169
rtibia 3.40236
rfoot -10.1495 -20.2697
rtoes -0.0829492
lfemur 5.08865 -52.1948 -6.38711
ltibia -5.31247
lfoot -48.0028 58.6302
ltoes 27.152
1587
root 0.614007 17.5774 8.81751 11.6856 -4.89093 -13.336
lowerback 3.47731 2.1094 6.51117
upperback 3.74828 2.93097 -0.548392
thorax 2.29104 1.63359 -4.24718
lowerneck 6.45644 -2.39965 -1.92837
upperneck 18.346 -4.84618 11.0787
head 4.72629 -2.00079 3.68775
rclavicle -3.22031e-014 -7.4743e-014
rhumerus 11.5072 33.2189 -62.4969
rradius 128.393
rwrist -0.387943
rhand 21.7517 -36.5996
rfingers 7.12502
rthumb 46.1633 -59.6258
lclavicle -3.22031e-014 -7.4743e-014
lhumerus -14.0713 -28.1694 83.4974
lradius 129.215
lwrist 12.1923
lhand -13.2622 -8.63342
lfingers 7.12502
lthumb 12.8404 20.9516
rfemur -8.49138 22.1259 28.6157
rtibia 3.32699
rfoot -10.2884 -20.6106
rtoes 0.544211
lfemur 5.07693 -52.5021 -6.97114
ltibia -5.22635
lfoot -48.6532 58.6772
ltoes 27.5549
1588
root 0.610752 17.5792 8.82564 11.6594 -4.97275 -12.9398
lowerback 3.41199 2.14696 6.11763
upperback 3.45232 2.9795 -0.595161
thorax 2.00419 1.63309 -4.08054
lowerneck 6.05777 -2.43707 -2.15391
upperneck 18.6454 -4.96089 11.2369
head 4.89929 -2.04081 3.77006
rclavicle -1.35174e-014 -1.11319e-014
rhumerus 10.8992 33.3543 -63.1082
rradius 128.174
rwrist 0.551612
rhand 21.6232 -36.4688
rfingers 7.12502
rthumb 46.0441 -59.5449
lclavicle -1.35174e-014 -1.11319e-014
lhumerus -14.5482 -28.2001 83.8601
lradius 129.165
lwrist 12.1915
lhand -13.2772 -8.8032
lfingers 7.12502
lthumb 12.826 20.7828
rfemur -8.46316 22.4388 28.1352
rtibia 3.28212
rfoot -10.4129 -20.8932
rtoes 1.13374
lfemur 5.15157 -52.6884 -7.52061
ltibia -5.18011
lfoot -48.8668 58.8039
ltoes 27.6687
